<svg version="1.1" id="Layer_1" xmlns="http://www.w3.org/2000/svg" xmlns:xlink="http://www.w3.org/1999/xlink" x="0px" y="0px"
	 width="100%" viewBox="0 0 1024 1024" enable-background="new 0 0 1024 1024" xml:space="preserve"  style="border-radius: 9999px">
 <rect x="0" y="0" width="1000%" height="1000%" fill="white"/>
<path fill="#000000" opacity="1.000000" stroke="none" 
	d="
M811.531372,1.000000 
	C824.387329,9.671758 837.135010,17.878290 849.074646,27.127962 
	C865.603455,39.933041 882.498108,52.399464 896.639099,68.010033 
	C902.909668,74.932274 910.000427,80.993141 916.682556,87.476608 
	C925.985046,96.502495 934.379822,106.458649 943.582275,115.594437 
	C954.141052,126.076782 962.353760,138.482666 972.234314,149.482620 
	C991.049927,170.429749 1007.970886,192.844437 1024.732178,215.805099 
	C1025.000000,237.020889 1025.000000,258.041779 1025.000000,279.531342 
	C1016.524963,267.447174 1008.392395,254.645645 999.497498,242.397690 
	C984.835083,222.207993 971.065002,201.368393 953.873596,183.035248 
	C942.964417,171.401566 934.167175,157.775726 923.162231,146.246506 
	C908.926514,131.332672 894.632996,116.431328 880.030029,101.844879 
	C866.560852,88.390877 852.715698,75.463829 837.949158,63.654766 
	C815.840088,45.973820 792.388000,30.123320 767.174744,16.998407 
	C756.995361,11.699459 747.080872,5.900536 736.208496,1.288078 
	C761.020874,1.000000 786.041809,1.000000 811.531372,1.000000 
z"/>
<path fill="#000000" opacity="1.000000" stroke="none" 
	d="
M1.000011,1011.474121 
	C1.388231,1011.712219 2.064923,1012.402832 2.120182,1013.140015 
	C2.693365,1020.787231 8.235301,1022.998047 14.709666,1024.773438 
	C10.409399,1025.000000 5.818798,1025.000000 1.000000,1025.000000 
	C1.000000,1020.651062 1.000000,1016.299683 1.000011,1011.474121 
z"/>
<path fill="#000000" opacity="1.000000" stroke="none" 
	d="
M1012.476685,1025.000000 
	C1016.599792,1023.196655 1021.851501,1022.455261 1024.717529,1017.183594 
	C1025.000000,1019.607727 1025.000000,1022.215393 1025.000000,1025.000000 
	C1020.985474,1025.000000 1016.969360,1025.000000 1012.476685,1025.000000 
z"/>
<path fill="#000000" opacity="1.000000" stroke="none" 
	d="
M91.029739,393.836304 
	C107.277809,390.110687 123.152008,385.388214 139.547836,387.191833 
	C158.551727,389.282288 177.652725,392.381531 192.800217,405.625610 
	C202.282562,413.916473 208.687424,424.758209 214.780426,435.662872 
	C218.752991,442.772614 222.565552,450.046814 225.850220,457.432220 
	C230.368210,467.590515 231.701828,478.667206 232.324219,489.898407 
	C233.188461,505.494293 230.525040,520.670532 225.807098,535.072021 
	C216.644424,563.041382 200.449539,585.637146 171.916473,597.531250 
	C159.920166,602.531921 148.275864,608.163086 135.140152,609.596497 
	C128.328568,610.339844 121.621597,610.508179 114.796104,609.350952 
	C103.761292,607.479919 93.169113,604.083435 82.649887,600.502686 
	C72.216606,596.951233 63.018032,590.961426 53.837116,584.915955 
	C39.983082,575.793335 29.390400,563.561279 19.591671,550.485107 
	C13.494353,542.348267 10.758072,532.592529 7.375887,523.286011 
	C1.755097,507.819702 1.119912,491.892944 5.008452,475.708191 
	C7.036760,467.265991 9.948890,459.234833 13.185674,451.240051 
	C16.515665,443.015076 23.087711,437.112396 27.916592,429.971283 
	C41.190308,410.341583 62.168934,403.526215 83.104187,396.600891 
	C85.632881,395.764374 88.124901,394.817017 91.029739,393.836304 
M161.365570,419.120178 
	C154.996887,414.644043 147.429947,413.662537 140.115936,412.577179 
	C128.415527,410.840973 118.749786,414.502930 112.824127,425.508820 
	C111.943283,427.144867 110.713203,428.383820 109.109962,429.429474 
	C103.728065,432.939331 102.005531,437.300659 103.976555,443.545166 
	C107.201607,453.762695 113.655602,461.799438 122.661430,467.342896 
	C135.529556,475.263763 149.548828,479.276062 164.878342,477.643036 
	C168.633835,477.242981 172.008224,476.079865 174.985779,473.837860 
	C182.883621,467.890869 185.522400,458.134552 182.318192,446.688110 
	C179.050629,435.015259 172.585190,425.688690 161.365570,419.120178 
z"/>
<path fill="#000000" opacity="1.000000" stroke="none" 
	d="
M931.073608,333.890594 
	C941.738831,342.417175 948.916443,353.551270 957.500366,363.461914 
	C965.604309,372.818359 970.566101,383.823395 976.142761,394.531372 
	C980.644775,403.176056 981.210754,412.683380 979.782654,422.145813 
	C978.570862,430.174225 976.195374,438.027527 974.994873,446.057007 
	C972.550049,462.409515 963.128540,474.596405 952.237244,486.076416 
	C946.773865,491.835114 942.397644,498.840302 935.153748,502.575165 
	C926.003967,507.292725 917.572144,514.210815 907.503357,516.177307 
	C892.956665,519.018433 878.198547,522.348633 863.096802,518.961975 
	C850.450562,516.125916 837.717712,513.675842 825.023071,511.055573 
	C821.046021,510.234711 817.553894,508.185974 814.026794,506.375336 
	C806.512390,502.517761 799.280884,498.105804 791.741272,494.301758 
	C785.867676,491.338257 782.421021,485.850952 777.621704,481.789246 
	C769.644226,475.037811 761.071472,468.794067 755.618591,459.580444 
	C748.890320,448.211578 743.554871,436.584259 743.436768,422.722687 
	C743.327087,409.865875 745.534912,397.649078 749.365234,385.595032 
	C750.242676,382.833618 750.262695,380.040955 750.846802,377.287781 
	C752.461548,369.676208 756.335999,363.708252 761.942444,358.285828 
	C769.814575,350.671967 776.101807,341.342163 785.739258,335.655701 
	C797.520325,328.704285 810.076355,323.481934 823.445007,320.406891 
	C843.882324,315.705902 864.550476,312.944977 885.572266,313.647430 
	C892.411011,313.875946 899.143738,314.740906 905.034241,318.782898 
	C913.232727,324.408569 923.628723,326.247070 931.073608,333.890594 
M861.768616,350.446808 
	C859.086609,357.941132 859.561768,365.182312 863.795593,371.981049 
	C872.662476,386.219574 885.181213,395.846527 901.119446,400.981232 
	C907.495117,403.035187 913.883545,402.853607 918.952087,398.109833 
	C925.098694,392.357117 926.968872,378.785522 922.683533,371.508240 
	C919.682556,366.411957 915.061218,362.285522 913.949646,356.061127 
	C913.782532,355.125214 912.552063,354.132721 911.575134,353.626740 
	C903.488464,349.438660 896.180847,343.806122 887.415161,340.864349 
	C876.486816,337.196869 864.587097,339.163177 861.768616,350.446808 
z"/>
<path fill="#000000" opacity="1.000000" stroke="none" 
	d="
M439.937134,586.713989 
	C438.279510,579.782166 435.352417,573.552185 435.768097,566.528870 
	C436.152588,560.032776 439.244843,555.449585 444.338959,554.793091 
	C449.290558,554.154846 453.050110,557.270203 455.246368,564.066711 
	C466.966431,562.448975 478.783752,561.307861 490.440765,558.628052 
	C502.392822,555.880493 514.474792,553.805908 526.758606,552.688110 
	C541.618347,551.335938 556.467590,549.572876 571.112427,546.470703 
	C573.844849,545.891907 576.727417,545.931458 579.544800,545.868225 
	C582.648865,545.798462 584.532715,544.738159 584.838196,541.295227 
	C585.275146,536.369019 588.178223,533.377930 593.034485,532.631653 
	C597.920715,531.880737 600.519897,535.026062 603.006958,538.664368 
	C605.756042,542.686035 605.170715,547.331482 605.794556,551.655151 
	C606.521729,556.694641 608.536682,561.496887 608.315674,566.713623 
	C608.125610,571.198303 606.332581,574.461548 602.044312,575.912170 
	C597.698730,577.382141 593.722595,575.520020 590.912354,571.397278 
	C589.360046,569.119934 589.569763,565.277405 586.426392,564.583191 
	C582.560669,563.729431 578.579407,564.330383 574.572021,565.010376 
	C561.141296,567.289490 547.677612,569.506958 534.144958,571.017334 
	C517.767944,572.845215 501.478821,574.915344 485.500885,579.100403 
	C479.863953,580.576843 474.025787,580.911987 468.206360,581.345154 
	C463.565552,581.690552 458.604309,581.496704 457.105347,588.061768 
	C456.374817,591.261292 453.192474,593.200928 449.363037,593.318420 
	C444.660950,593.462646 441.954651,590.962097 439.937134,586.713989 
z"/>
</svg>